<svg xmlns="http://www.w3.org/2000/svg" xmlns:xlink="http://www.w3.org/1999/xlink">

<symbol id="github" fill-rule="evenodd" clip-rule="evenodd" stroke-linejoin="round" stroke-miterlimit="1.414"><g transform="scale(2)"><path d="M8 0C3.58 0 0 3.582 0 8c0 3.535 2.292 6.533 5.47 7.59.4.075.547-.172.547-.385 0-.19-.007-.693-.01-1.36-2.226.483-2.695-1.073-2.695-1.073-.364-.924-.89-1.17-.89-1.17-.725-.496.056-.486.056-.486.803.056 1.225.824 1.225.824.714 1.223 1.873.87 2.33.665.072-.517.278-.87.507-1.07-1.777-.2-3.644-.888-3.644-3.953 0-.873.31-1.587.823-2.147-.09-.202-.36-1.015.07-2.117 0 0 .67-.215 2.2.82.64-.178 1.32-.266 2-.27.68.004 1.36.092 2 .27 1.52-1.035 2.19-.82 2.19-.82.43 1.102.16 1.915.08 2.117.51.56.82 1.274.82 2.147 0 3.073-1.87 3.75-3.65 3.947.28.24.54.73.54 1.48 0 1.07-.01 1.93-.01 2.19 0 .21.14.46.55.38C13.71 14.53 16 11.53 16 8c0-4.418-3.582-8-8-8"/></g></symbol>

<symbol id="linkedin" fill-rule="evenodd" clip-rule="evenodd" stroke-linejoin="round" stroke-miterlimit="1.414"><g transform="scale(2)"><path d="M13.632 13.635h-2.37V9.922c0-.886-.018-2.025-1.234-2.025-1.235 0-1.424.964-1.424 1.96v3.778h-2.37V6H8.51v1.04h.03c.318-.6 1.092-1.233 2.247-1.233 2.4 0 2.845 1.58 2.845 3.637v4.188zM3.558 4.955c-.762 0-1.376-.617-1.376-1.377 0-.758.614-1.375 1.376-1.375.76 0 1.376.617 1.376 1.375 0 .76-.617 1.377-1.376 1.377zm1.188 8.68H2.37V6h2.376v7.635zM14.816 0H1.18C.528 0 0 .516 0 1.153v13.694C0 15.484.528 16 1.18 16h13.635c.652 0 1.185-.516 1.185-1.153V1.153C16 .516 15.467 0 14.815 0z" fill-rule="nonzero"/></g></symbol>

<symbol id="weibo" fill-rule="evenodd" clip-rule="evenodd" stroke-linejoin="round" stroke-miterlimit="1.414"><g transform="scale(0.07)"><path d="M407 177.6c7.6-24-13.4-46.8-37.4-41.7-22 4.8-28.8-28.1-7.1-32.8 50.1-10.9 92.3 37.1 76.5 84.8-6.8 21.2-38.8 10.8-32-10.3zM214.8 446.7C108.5 446.7 0 395.3 0 310.4c0-44.3 28-95.4 76.3-143.7C176 67 279.5 65.8 249.9 161c-4 13.1 12.3 5.7 12.3 6 79.5-33.6 140.5-16.8 114 51.4-3.7 9.4 1.1 10.9 8.3 13.1 135.7 42.3 34.8 215.2-169.7 215.2zm143.7-146.3c-5.4-55.7-78.5-94-163.4-85.7-84.8 8.6-148.8 60.3-143.4 116s78.5 94 163.4 85.7c84.8-8.6 148.8-60.3 143.4-116zM347.9 35.1c-25.9 5.6-16.8 43.7 8.3 38.3 72.3-15.2 134.8 52.8 111.7 124-7.4 24.2 29.1 37 37.4 12 31.9-99.8-55.1-195.9-157.4-174.3zm-78.5 311c-17.1 38.8-66.8 60-109.1 46.3-40.8-13.1-58-53.4-40.3-89.7 17.7-35.4 63.1-55.4 103.4-45.1 42 10.8 63.1 50.2 46 88.5zm-86.3-30c-12.9-5.4-30 .3-38 12.9-8.3 12.9-4.3 28 8.6 34 13.1 6 30.8.3 39.1-12.9 8-13.1 3.7-28.3-9.7-34zm32.6-13.4c-5.1-1.7-11.4.6-14.3 5.4-2.9 5.1-1.4 10.6 3.7 12.9 5.1 2 11.7-.3 14.6-5.4 2.8-5.2 1.1-10.9-4-12.9z"/></g></symbol>

<symbol id="zhihu" fill-rule="evenodd" clip-rule="evenodd" stroke-linejoin="round" stroke-miterlimit="1.414"><g transform="scale(0.035)"><path d="M360.042803 684.410025c4.013778 1.216296 9.365483 7.419408 18.122817 18.244447 31.623708 38.678228 61.544601 78.694382 94.262977 116.521202 13.500891 15.690224 14.595558 18.730966 16.663262 12.284594 10.33852-32.596745 20.433781-62.396009 11.311557-76.140159-21.528448-25.785485-76.626678-91.708754-98.155125-117.494239l-42.205488 46.584155z" fill="#5B5C5C" /><path d="M371.840879 642.934315c3.162371-16.784891 8.270816-33.569783 9.000594-50.476303 1.094667-26.636893 12.892743-31.01556 37.218672-31.25882 31.745338-0.364889 87.816605-0.364889 119.926832 0 7.05452 0.12163 0.851408 0.851408-0.243259-5.838223-4.013778-24.325929-16.541632-53.638674-41.718969-54.125193-30.772301-0.486519-53.152156 0-84.046087 0-11.798076 0-23.109633-3.648889-21.650077-20.433781 4.135408-47.192303 0.486519-94.627866 5.594964-141.820168 2.067704-18.974225 9.608742-25.177337 27.366671-24.569189 23.474522 0.851408 65.923269 0.486519 89.39779 0 27.60993-0.486519 33.934672 7.784297 5.716594-40.745932-8.757335-14.960447-20.55541-12.527854-34.42119-12.527853-58.868749 0-121.021499-0.486519-180.011878 0-19.825632 0.12163-23.352892-9.973631-16.298373-29.677634 6.689631-18.852595 14.717187-53.517045 20.79867-72.6129 5.594964-17.757928-0.12163-13.500891-0.12163-13.500891-24.569189 14.230669-67.139565 32.718375-77.113196 58.017342-24.325929 61.90949-52.300748 140.117354-78.086234 201.540326-2.310963 5.351704-4.013778 5.959853 13.500891 1.581185 32.596745-8.149186 64.828602-25.542226 80.397197-56.071267 19.095855-37.461931 23.109633-39.286376 63.490676-36.002376 12.406224 0.973037 17.514669 4.865186 17.14978 18.122818-1.337926 46.340896-2.189334 92.803421-1.824445 139.265946 0.243259 20.55541-8.149186 30.042523-27.731559 29.434374-30.772301-0.973037-65.193491 0.608148-95.965792 0-19.825632-0.364889-41.718969 19.825632-45.124599 46.462525-1.459556 10.33852-4.013778 13.379261-2.919112 13.500891 35.394227-0.364889 102.655422 0.973037 137.92802 0 18.974225-0.486519 26.636893 3.770519 23.474522 23.961041-7.419408 47.313933-21.163559 92.316902-43.665043 134.27913C244.00812 771.253593 207.154336 815.770044 161.543219 853.110346 156.191514 857.489013 148.042328 861.86768 150.353291 870.260126c2.432593 9.000594 11.676446 7.905927 18.487707 7.662668 43.178525-1.581185 85.019123-6.568001 115.669794-43.178525 30.89393-36.853783 49.868155-79.910678 66.653047-124.3055l20.67704-67.504454zM628.114545 759.212258V321.223898H814.086276v437.98836h-59.963416l-84.897494 54.611712-17.14978-54.611712h-23.961041m245.935147-491.991923H568.0295v545.873857H627.992916l17.514669 65.680009 90.370828-65.680009h137.92802V268.558261" fill="#5B5C5C" /></g></symbol>
</svg>
